<svg width="50" height="50" viewBox="0 0 50 50" fill="none" xmlns="http://www.w3.org/2000/svg">
<path d="M22.9167 12.2545V40.0837C22.9167 42.1085 21.2752 43.75 19.2504 43.75C17.7009 43.75 16.3188 42.776 15.7977 41.3168L11.326 28.506M37.5 27.0833C40.9518 27.0833 43.75 24.2851 43.75 20.8333C43.75 17.3816 40.9518 14.5833 37.5 14.5833M11.326 28.506C8.34229 27.2377 6.25 24.2799 6.25 20.8333C6.25 16.231 9.98095 12.5 14.5833 12.5H18.4002C26.9432 12.5 34.2852 9.92897 37.5 6.25L37.5 35.4167C34.2852 31.7377 26.9432 29.1667 18.4002 29.1667L14.5833 29.1666C13.4275 29.1666 12.3266 28.9313 11.326 28.506Z" stroke="#A0A0A1" stroke-width="3" stroke-linecap="round" stroke-linejoin="round"/>
</svg>
