<svg width="50" height="50" viewBox="0 0 50 50" fill="none" xmlns="http://www.w3.org/2000/svg">
<path d="M8.33325 10.4167C8.33325 9.26611 9.26599 8.33337 10.4166 8.33337H39.5832C40.7338 8.33337 41.6666 9.26611 41.6666 10.4167V14.5834C41.6666 15.734 40.7338 16.6667 39.5832 16.6667H10.4166C9.26599 16.6667 8.33325 15.734 8.33325 14.5834V10.4167Z" stroke="#A0A0A1" stroke-width="3" stroke-linecap="round" stroke-linejoin="round"/>
<path d="M8.33325 27.0834C8.33325 25.9328 9.26599 25 10.4166 25H22.9166C24.0672 25 24.9999 25.9328 24.9999 27.0834V39.5834C24.9999 40.734 24.0672 41.6667 22.9166 41.6667H10.4166C9.26599 41.6667 8.33325 40.734 8.33325 39.5834V27.0834Z" stroke="#A0A0A1" stroke-width="3" stroke-linecap="round" stroke-linejoin="round"/>
<path d="M33.3332 27.0834C33.3332 25.9328 34.266 25 35.4166 25H39.5832C40.7338 25 41.6666 25.9328 41.6666 27.0834V39.5834C41.6666 40.734 40.7338 41.6667 39.5832 41.6667H35.4166C34.266 41.6667 33.3332 40.734 33.3332 39.5834V27.0834Z" stroke="#A0A0A1" stroke-width="3" stroke-linecap="round" stroke-linejoin="round"/>
</svg>
