<svg width="43" height="30" viewBox="0 0 43 30" fill="none" xmlns="http://www.w3.org/2000/svg">
<path d="M14.9689 5.22961C15.8939 5.22961 16.7484 5.29962 17.5325 5.50965C18.3165 5.64966 18.9596 5.93845 19.5323 6.28849C20.1049 6.63853 20.5277 7.13734 20.8184 7.77616C21.1003 8.41499 21.2501 9.19383 21.2501 10.0427C21.2501 11.0315 21.0387 11.8804 20.5365 12.5192C20.1049 13.158 19.4001 13.7269 18.5368 14.1469C19.7525 14.4969 20.6775 15.1358 21.2413 15.9846C21.8051 16.8335 22.1663 17.8923 22.1663 19.1C22.1663 20.0888 21.9549 20.9377 21.5937 21.6465C21.2413 22.3554 20.6687 22.9942 20.0256 23.4142C19.3825 23.843 18.5984 24.1931 17.7439 24.4031C16.8894 24.6131 16.0349 24.7531 15.1804 24.7531L5.63086 24.7706V5.22961H14.9689ZM14.3963 13.158C15.1804 13.158 15.8235 12.948 16.3168 12.5892C16.8101 12.2304 17.0304 11.6004 17.0304 10.8215C17.0304 10.3927 16.9599 9.97267 16.8189 9.69263C16.678 9.4126 16.4665 9.19383 16.1758 8.9838C15.8939 8.84379 15.6032 8.70377 15.2508 8.63376C14.8985 8.56375 14.5373 8.56375 14.1144 8.56375H9.98275V13.1668C9.98275 13.158 14.3963 13.158 14.3963 13.158ZM14.6077 21.5153C15.0394 21.5153 15.4623 21.4453 15.8235 21.3752C16.1758 21.3052 16.537 21.1652 16.8189 20.9464C17.1008 20.7277 17.3211 20.5176 17.5325 20.1676C17.6734 19.8176 17.8144 19.3888 17.8144 18.89C17.8144 17.9011 17.5325 17.1923 16.9599 16.6935C16.3873 16.2647 15.6032 16.0546 14.6782 16.0546H9.98275V21.5065H14.6077V21.5153Z" fill="white"/>
<path d="M27.9498 20.9551C28.5224 21.524 29.377 21.804 30.5134 21.804C31.2974 21.804 32.011 21.594 32.5836 21.2352C33.1562 20.8064 33.5086 20.3863 33.6496 19.9575H37.1381C36.5655 21.6552 35.711 22.8629 34.5746 23.6417C33.4381 24.3505 32.0815 24.7706 30.4429 24.7706C29.3065 24.7706 28.3022 24.5606 27.3772 24.2018C26.4522 23.8517 25.7386 23.3529 25.0955 22.6441C24.4524 22.0053 23.9591 21.2264 23.6684 20.3076C23.316 19.3887 23.1663 18.3998 23.1663 17.2622C23.1663 16.2033 23.3072 15.2057 23.6684 14.2869C24.0296 13.368 24.5229 12.5892 25.166 11.8803C25.8091 11.2415 26.5932 10.6727 27.4477 10.3227C28.3727 9.97261 29.2977 9.75384 30.4429 9.75384C31.6586 9.75384 32.7246 9.96386 33.6496 10.4627C34.5746 10.9615 35.2881 11.5215 35.8607 12.3704C36.4334 13.1492 36.8562 14.0681 37.1469 15.057C37.2879 16.0458 37.3584 17.0434 37.2879 18.1723H26.9543C26.9543 19.3275 27.3772 20.3863 27.9498 20.9551ZM32.4427 13.5168C31.9405 13.018 31.1565 12.7379 30.2315 12.7379C29.5884 12.7379 29.0951 12.8779 28.6634 13.088C28.2317 13.298 27.9498 13.5868 27.6679 13.8668C27.386 14.1468 27.2362 14.5056 27.1658 14.8557C27.0953 15.2057 27.0248 15.4945 27.0248 15.7745H33.4381C33.2972 14.7244 32.936 14.0156 32.4427 13.5168ZM26.1703 6.08716H34.1517V7.99488H26.1703V6.08716Z" fill="white"/>
</svg>
