<svg width="34" height="34" viewBox="0 0 34 34" fill="none" xmlns="http://www.w3.org/2000/svg">
<path d="M16.9211 16.9998C16.9211 15.9389 17.3426 14.9215 18.0927 14.1713C18.8429 13.4212 19.8603 12.9998 20.9212 12.9998C21.9821 12.9998 22.9995 13.4212 23.7496 14.1713C24.4998 14.9215 24.9212 15.9389 24.9212 16.9998C24.9212 18.0607 24.4998 19.0781 23.7496 19.8283C22.9995 20.5784 21.9821 20.9998 20.9212 20.9998C19.8603 20.9998 18.8429 20.5784 18.0927 19.8283C17.3426 19.0781 16.9211 18.0607 16.9211 16.9998V16.9998Z" stroke="white" stroke-width="1.12001"/>
<path d="M8.92114 25.0002C8.92114 23.9393 9.34257 22.9219 10.0927 22.1717C10.8429 21.4216 11.8603 21.0001 12.9212 21.0001H16.9212V25.0002C16.9212 26.061 16.4998 27.0785 15.7496 27.8286C14.9995 28.5788 13.9821 29.0002 12.9212 29.0002C11.8603 29.0002 10.8429 28.5788 10.0927 27.8286C9.34257 27.0785 8.92114 26.061 8.92114 25.0002Z" stroke="white" stroke-width="1.12001"/>
<path d="M16.9211 5V13.0001H20.9212C21.9821 13.0001 22.9995 12.5787 23.7496 11.8285C24.4998 11.0783 24.9212 10.0609 24.9212 9.00004C24.9212 7.93916 24.4998 6.92174 23.7496 6.17158C22.9995 5.42143 21.9821 5 20.9212 5H16.9211Z" stroke="white" stroke-width="1.12001"/>
<path d="M8.92114 9.00004C8.92114 10.0609 9.34257 11.0783 10.0927 11.8285C10.8429 12.5787 11.8603 13.0001 12.9212 13.0001H16.9212V5H12.9212C11.8603 5 10.8429 5.42143 10.0927 6.17158C9.34257 6.92174 8.92114 7.93916 8.92114 9.00004Z" stroke="white" stroke-width="1.12001"/>
<path d="M8.92114 16.9998C8.92114 18.0607 9.34257 19.0781 10.0927 19.8283C10.8429 20.5784 11.8603 20.9998 12.9212 20.9998H16.9212V12.9998H12.9212C11.8603 12.9998 10.8429 13.4212 10.0927 14.1713C9.34257 14.9215 8.92114 15.9389 8.92114 16.9998Z" stroke="white" stroke-width="1.12001"/>
</svg>
