<svg width="34" height="34" viewBox="0 0 34 34" fill="none" xmlns="http://www.w3.org/2000/svg">
<path d="M28.3863 7.16121V26.8391C28.3863 27.289 28.2075 27.7205 27.8894 28.0386C27.5713 28.3567 27.1398 28.5354 26.6899 28.5354H7.01204C6.56214 28.5354 6.13066 28.3567 5.81253 28.0386C5.4944 27.7205 5.31567 27.289 5.31567 26.8391V7.16121C5.31567 6.71131 5.4944 6.27983 5.81253 5.9617C6.13066 5.64357 6.56214 5.46484 7.01204 5.46484H26.6899C27.1398 5.46484 27.5713 5.64357 27.8894 5.9617C28.2075 6.27983 28.3863 6.71131 28.3863 7.16121ZM12.1011 14.286H8.70841V25.1427H12.1011V14.286ZM12.4065 10.5539C12.4083 10.2973 12.3595 10.0428 12.2629 9.80506C12.1664 9.56728 12.0239 9.35085 11.8437 9.16812C11.6635 8.98539 11.4491 8.83995 11.2127 8.7401C10.9762 8.64024 10.7225 8.58794 10.4658 8.58616H10.4048C9.88289 8.58616 9.38237 8.79348 9.01334 9.16251C8.64431 9.53154 8.43699 10.0321 8.43699 10.5539C8.43699 11.0758 8.64431 11.5763 9.01334 11.9454C9.38237 12.3144 9.88289 12.5217 10.4048 12.5217C10.6614 12.528 10.9168 12.4837 11.1563 12.3913C11.3958 12.2989 11.6148 12.1602 11.8007 11.9831C11.9866 11.806 12.1358 11.5941 12.2397 11.3593C12.3437 11.1246 12.4003 10.8717 12.4065 10.615V10.5539ZM24.9935 18.5472C24.9935 15.2834 22.9172 14.0145 20.8544 14.0145C20.179 13.9807 19.5065 14.1246 18.9041 14.4317C18.3016 14.7389 17.7903 15.1987 17.421 15.7652H17.326V14.286H14.1368V25.1427H17.5295V19.3683C17.4805 18.7769 17.6668 18.19 18.0479 17.7352C18.4291 17.2803 18.9743 16.9942 19.5652 16.9391H19.6941C20.773 16.9391 21.5737 17.6176 21.5737 19.3276V25.1427H24.9664L24.9935 18.5472Z" fill="white"/>
</svg>
